<mxfile host="Electron" agent="Mozilla/5.0 (Windows NT 10.0; Win64; x64) AppleWebKit/537.36 (KHTML, like Gecko) draw.io/24.7.17 Chrome/128.0.6613.36 Electron/32.0.1 Safari/537.36" version="24.7.17">
  <diagram name="Page-1" id="71ArfA3Yev_AmbF71EVU">
    <mxGraphModel dx="1050" dy="669" grid="1" gridSize="10" guides="1" tooltips="1" connect="1" arrows="1" fold="1" page="1" pageScale="1" pageWidth="850" pageHeight="1100" math="0" shadow="0">
      <root>
        <mxCell id="0" />
        <mxCell id="1" parent="0" />
        <mxCell id="RxNoAN4Y5SSTuU_QxXhQ-6" value="" style="edgeStyle=orthogonalEdgeStyle;rounded=0;orthogonalLoop=1;jettySize=auto;html=1;" edge="1" parent="1" source="RxNoAN4Y5SSTuU_QxXhQ-1" target="RxNoAN4Y5SSTuU_QxXhQ-2">
          <mxGeometry relative="1" as="geometry" />
        </mxCell>
        <mxCell id="RxNoAN4Y5SSTuU_QxXhQ-1" value="Begin" style="rounded=1;whiteSpace=wrap;html=1;" vertex="1" parent="1">
          <mxGeometry x="270" y="100" width="120" height="60" as="geometry" />
        </mxCell>
        <mxCell id="RxNoAN4Y5SSTuU_QxXhQ-7" value="" style="edgeStyle=orthogonalEdgeStyle;rounded=0;orthogonalLoop=1;jettySize=auto;html=1;" edge="1" parent="1" source="RxNoAN4Y5SSTuU_QxXhQ-2" target="RxNoAN4Y5SSTuU_QxXhQ-3">
          <mxGeometry relative="1" as="geometry" />
        </mxCell>
        <mxCell id="RxNoAN4Y5SSTuU_QxXhQ-2" value="INPUT A,B,C" style="shape=parallelogram;perimeter=parallelogramPerimeter;whiteSpace=wrap;html=1;fixedSize=1;" vertex="1" parent="1">
          <mxGeometry x="270" y="190" width="120" height="60" as="geometry" />
        </mxCell>
        <mxCell id="RxNoAN4Y5SSTuU_QxXhQ-8" value="" style="edgeStyle=orthogonalEdgeStyle;rounded=0;orthogonalLoop=1;jettySize=auto;html=1;" edge="1" parent="1" source="RxNoAN4Y5SSTuU_QxXhQ-3" target="RxNoAN4Y5SSTuU_QxXhQ-4">
          <mxGeometry relative="1" as="geometry" />
        </mxCell>
        <mxCell id="RxNoAN4Y5SSTuU_QxXhQ-3" value="(A+B+C)/3=D" style="rounded=1;whiteSpace=wrap;html=1;" vertex="1" parent="1">
          <mxGeometry x="270" y="290" width="120" height="60" as="geometry" />
        </mxCell>
        <mxCell id="RxNoAN4Y5SSTuU_QxXhQ-9" value="" style="edgeStyle=orthogonalEdgeStyle;rounded=0;orthogonalLoop=1;jettySize=auto;html=1;" edge="1" parent="1" source="RxNoAN4Y5SSTuU_QxXhQ-4" target="RxNoAN4Y5SSTuU_QxXhQ-5">
          <mxGeometry relative="1" as="geometry" />
        </mxCell>
        <mxCell id="RxNoAN4Y5SSTuU_QxXhQ-4" value="DISPLAY D" style="shape=parallelogram;perimeter=parallelogramPerimeter;whiteSpace=wrap;html=1;fixedSize=1;" vertex="1" parent="1">
          <mxGeometry x="270" y="390" width="120" height="60" as="geometry" />
        </mxCell>
        <mxCell id="RxNoAN4Y5SSTuU_QxXhQ-5" value="End" style="rounded=1;whiteSpace=wrap;html=1;" vertex="1" parent="1">
          <mxGeometry x="270" y="480" width="120" height="60" as="geometry" />
        </mxCell>
      </root>
    </mxGraphModel>
  </diagram>
</mxfile>
